<?xml version="1.0" standalone="no"?>
<!DOCTYPE svg PUBLIC "-//W3C//DTD SVG 20010904//EN"
 "http://www.w3.org/TR/2001/REC-SVG-20010904/DTD/svg10.dtd">
<svg version="1.0" xmlns="http://www.w3.org/2000/svg"
 width="250.000000pt" height="142.000000pt" viewBox="0 0 250.000000 142.000000"
 preserveAspectRatio="xMidYMid meet">

<g transform="translate(0.000000,142.000000) scale(0.100000,-0.100000)"
fill="#000000" stroke="none">
<path d="M590 1282 c0 -16 9 -21 49 -26 118 -16 220 -151 209 -280 -12 -141
-158 -261 -295 -242 -167 23 -275 199 -217 351 20 51 22 77 7 82 -6 2 -21 -21
-33 -54 -61 -158 5 -321 159 -391 46 -21 64 -24 130 -20 88 5 136 26 195 85
57 56 86 124 86 203 0 157 -99 277 -252 305 -34 6 -38 5 -38 -13z"/>
<path d="M1254 1282 c0 -16 9 -21 47 -26 95 -13 186 -103 208 -206 40 -187
-140 -359 -322 -306 -71 21 -116 52 -152 106 -20 30 -36 44 -47 42 -17 -3 -16
-6 1 -41 29 -55 100 -116 161 -136 68 -23 178 -17 235 12 55 29 113 89 139
143 32 70 30 198 -6 265 -46 88 -125 145 -224 160 -35 6 -40 5 -40 -13z"/>
<path d="M460 1176 c0 -23 3 -26 13 -17 10 8 17 7 25 -1 9 -9 12 -5 12 16 0
23 -3 26 -13 17 -10 -8 -17 -7 -25 1 -9 9 -12 5 -12 -16z"/>
<path d="M534 1184 c3 -9 6 -20 6 -25 0 -20 18 -7 22 16 4 20 1 25 -14 25 -14
0 -18 -5 -14 -16z"/>
<path d="M590 1173 c0 -21 2 -22 20 -11 17 11 22 10 30 -2 8 -12 10 -9 10 11
0 22 -4 26 -30 26 -25 0 -30 -4 -30 -24z"/>
<path d="M671 1178 c-1 -22 3 -28 21 -28 19 0 20 2 6 13 -9 6 -18 19 -21 27
-3 8 -6 3 -6 -12z"/>
<path d="M1170 1175 c0 -21 5 -25 28 -24 16 1 20 3 10 6 -10 2 -18 11 -18 18
0 7 8 16 18 18 10 3 6 5 -10 6 -23 1 -28 -3 -28 -24z"/>
<path d="M1234 1175 c1 -17 7 -25 18 -25 13 0 17 7 16 25 -3 35 -36 35 -34 0z"/>
<path d="M1294 1175 c0 -16 7 -25 17 -25 12 0 16 8 15 25 0 16 -7 25 -17 25
-12 0 -16 -8 -15 -25z"/>
<path d="M1890 1185 c0 -8 -7 -15 -15 -15 -8 0 -15 -4 -15 -10 0 -5 11 -10 25
-10 20 0 25 5 25 25 0 14 -4 25 -10 25 -5 0 -10 -7 -10 -15z"/>
<path d="M1931 1184 c10 -13 10 -17 -2 -25 -10 -6 -4 -9 20 -9 29 0 32 2 20
16 -10 13 -10 17 2 25 10 6 4 9 -20 9 -29 0 -32 -2 -20 -16z"/>
<path d="M471 1112 l-33 -3 7 -106 c4 -59 10 -127 14 -151 l6 -45 60 -17 c56
-16 64 -16 120 0 l60 17 14 147 c7 81 11 150 7 153 -6 7 -198 10 -255 5z m146
-28 c-3 -3 -12 -4 -19 -1 -8 3 -5 6 6 6 11 1 17 -2 13 -5z m50 0 c-3 -3 -12
-4 -19 -1 -8 3 -5 6 6 6 11 1 17 -2 13 -5z m21 -49 c-2 -24 -4 -25 -80 -25
-65 0 -76 -2 -72 -15 5 -11 23 -15 75 -15 77 0 75 3 63 -82 -6 -43 -9 -46 -47
-58 -52 -15 -127 3 -127 30 0 10 -3 25 -6 34 -5 12 0 16 20 16 16 0 26 -6 26
-14 0 -18 26 -27 56 -20 15 4 24 13 24 25 0 17 -8 19 -60 19 -67 0 -65 -2 -75
78 l-6 52 106 0 105 0 -2 -25z m-25 -42 c-13 -2 -35 -2 -50 0 -16 2 -5 4 22 4
28 0 40 -2 28 -4z m-53 -77 c0 -3 -4 -8 -10 -11 -5 -3 -10 -1 -10 4 0 6 5 11
10 11 6 0 10 -2 10 -4z m77 -48 c-3 -8 -6 -5 -6 6 -1 11 2 17 5 13 3 -3 4 -12
1 -19z m-43 -42 c-3 -8 -15 -17 -27 -20 -42 -11 -27 5 30 33 1 1 0 -5 -3 -13z"/>
<path d="M1100 1118 c0 -19 30 -312 32 -314 2 -1 29 -9 61 -17 52 -14 63 -14
120 1 l62 17 6 75 c3 41 9 111 14 156 l7 81 -151 2 c-83 1 -151 1 -151 -1z
m265 -134 c-9 -141 -9 -142 -21 -153 -17 -15 -73 -30 -79 -21 -3 5 16 16 42
24 26 8 40 15 31 15 -9 1 -29 -4 -44 -10 -33 -12 -124 6 -124 24 0 7 -3 22 -6
35 -5 19 -2 22 20 22 16 0 26 -6 26 -14 0 -13 20 -26 42 -26 6 0 8 7 5 15 -4
8 -1 18 6 22 7 5 -11 10 -43 13 -48 4 -55 8 -58 28 -3 18 4 25 30 35 l33 12
-35 5 c-27 4 -36 10 -38 28 -3 21 -1 22 95 24 54 1 79 3 56 5 -60 6 -54 21 10
26 28 2 54 4 56 5 2 1 0 -50 -4 -114z"/>
<path d="M1305 990 c-3 -5 1 -10 9 -10 8 0 18 5 21 10 3 6 -1 10 -9 10 -8 0
-18 -4 -21 -10z"/>
<path d="M1343 900 c0 -25 2 -35 4 -22 2 12 2 32 0 45 -2 12 -4 2 -4 -23z"/>
<path d="M1281 904 c0 -11 3 -14 6 -6 3 7 2 16 -1 19 -3 4 -6 -2 -5 -13z"/>
<path d="M1782 995 c0 -16 2 -22 5 -12 2 9 2 23 0 30 -3 6 -5 -1 -5 -18z"/>
<path d="M2181 954 c0 -11 3 -14 6 -6 3 7 2 16 -1 19 -3 4 -6 -2 -5 -13z"/>
<path d="M1592 703 c2 -11 16 -20 38 -24 156 -25 250 -184 204 -345 -4 -14 0
-23 11 -27 23 -9 37 34 38 115 0 125 -75 234 -194 279 -64 25 -102 25 -97 2z"/>
<path d="M1948 703 c7 -3 16 -2 19 1 4 3 -2 6 -13 5 -11 0 -14 -3 -6 -6z"/>
<path d="M830 601 c0 -27 2 -28 24 -18 27 13 24 47 -5 47 -14 0 -19 -7 -19
-29z"/>
<path d="M890 600 c0 -30 14 -41 23 -17 4 9 8 8 16 -3 8 -12 11 -7 11 20 0 27
-3 32 -11 20 -8 -11 -12 -12 -16 -2 -9 23 -23 12 -23 -18z"/>
<path d="M960 600 c0 -28 2 -29 20 -18 11 7 20 21 20 30 0 11 -8 18 -20 18
-16 0 -20 -7 -20 -30z"/>
<path d="M1504 618 c-4 -6 -2 -14 5 -16 9 -3 9 -7 0 -18 -9 -11 -7 -14 9 -14
16 0 20 6 20 30 -1 30 -20 41 -34 18z"/>
<path d="M1564 616 c-9 -24 3 -46 26 -46 17 0 21 5 18 27 -3 31 -34 44 -44 19z"/>
<path d="M1627 622 c-13 -19 2 -52 24 -52 10 0 19 5 19 10 0 6 -6 10 -14 10
-8 0 -16 10 -18 23 -2 15 -5 18 -11 9z"/>
<path d="M1440 497 c0 -80 22 -262 32 -268 6 -4 36 -12 67 -19 48 -10 65 -9
113 4 l55 17 6 57 c4 31 9 101 13 155 l7 97 -147 0 -146 0 0 -43z m259 -82
c-4 -33 -9 -83 -10 -111 l-2 -51 -49 -15 -48 -15 0 45 c0 35 -4 45 -20 49 -11
3 -20 10 -20 17 0 7 -4 6 -9 -2 -11 -19 -76 -12 -76 8 0 10 8 14 24 12 l23 -4
-26 35 c-40 53 -35 70 19 65 25 -2 45 0 45 4 0 5 9 8 20 8 15 0 20 7 20 24 0
23 4 25 53 28 63 4 68 -7 56 -97z"/>
<path d="M1662 420 c0 -14 2 -19 5 -12 2 6 2 18 0 25 -3 6 -5 1 -5 -13z"/>
<path d="M1521 388 c12 -18 24 -35 26 -37 2 -2 3 12 3 32 0 33 -3 37 -26 37
l-25 0 22 -32z"/>
</g>
</svg>
